<svg height="512pt" viewBox="0 0 512 512.00001" width="512pt" xmlns="http://www.w3.org/2000/svg" xmlns:xlink="http://www.w3.org/1999/xlink"><linearGradient id="a" gradientUnits="userSpaceOnUse" x1=".0007887228" x2="511.9837927261" y1="255.9998607261" y2="255.9998607261"><stop offset="0" stop-color="#00f2fe"/><stop offset=".0208" stop-color="#03effe"/><stop offset=".2931" stop-color="#24d2fe"/><stop offset=".5538" stop-color="#3cbdfe"/><stop offset=".7956" stop-color="#4ab0fe"/><stop offset="1" stop-color="#4facfe"/></linearGradient><path d="m506.078125 254.195312c-3.898437 3.875-9 5.8125-14.09375 5.8125-5.140625 0-10.277344-1.96875-14.1875-5.902343l-15.8125-15.917969v93.820312c0 11.042969-8.953125 19.996094-20 19.996094-11.042969 0-19.996094-8.953125-19.996094-19.996094v-134.082031l-152.105469-153.105469c-7.464843-6.394531-18.453124-6.417968-25.945312-.054687l-153.96875 153.667969c.003906.191406.027344.382812.027344.578125v232.992187c0 22.054688 17.945312 39.996094 40 39.996094h251.992187c22.054688 0 40-17.941406 40-39.996094 0-11.046875 8.953125-20 19.996094-20 11.046875 0 20 8.953125 20 20 0 44.109375-35.886719 79.996094-79.996094 79.996094h-251.992187c-44.109375 0-79.996094-35.886719-79.996094-79.996094v-193.679687l-15.871094 15.839843c-7.820312 7.800782-20.480468 7.792969-28.285156-.027343-7.800781-7.816407-7.789062-20.480469.027344-28.285157l210.285156-209.867187c.269531-.269531.542969-.527344.828125-.78125 22.839844-20.335937 57.226563-20.261719 79.980469.167969.28125.253906.558594.515625.824218.785156l208.382813 209.757812c7.785156 7.835938 7.742187 20.496094-.09375 28.28125zm-209.132813-42.949218c3.894532 3.84375 8.972657 5.761718 14.042969 5.761718 5.164063 0 10.328125-1.988281 14.238281-5.953124 7.757813-7.863282 7.671876-20.523438-.191406-28.28125l-33.785156-33.332032c-19.441406-19.179687-51.078125-19.179687-70.515625 0l-33.789063 33.332032c-7.859374 7.753906-7.945312 20.417968-.191406 28.28125 7.757813 7.863281 20.421875 7.949218 28.285156.191406l19.953126-19.683594v182.890625l-19.953126-19.6875c-7.863281-7.757813-20.527343-7.667969-28.285156.191406-7.753906 7.863281-7.667968 20.527344.191406 28.285157l33.789063 33.328124c9.71875 9.589844 22.488281 14.386719 35.257813 14.386719 12.765624 0 25.535156-4.796875 35.257812-14.386719l33.785156-33.328124c7.863282-7.757813 7.949219-20.421876.191406-28.285157-7.757812-7.863281-20.417968-7.949219-28.28125-.191406l-21.953124 21.660156v-186.835937zm0 0" fill="url(#a)"/></svg>