<svg height="512pt" viewBox="0 0 512.00014 512" width="512pt" xmlns="http://www.w3.org/2000/svg"><path d="m505.847656 188.871094-240.984375-185.992188c-5.273437-3.839844-12.453125-3.839844-17.726562 0l-240.984375 185.996094c-6.835938 5.011719-8.109375 14.503906-3.148438 21.125l18.015625 24.007812c4.957031 6.582032 14.21875 7.917969 20.832031 3.121094l214.148438-165.710937 214.164062 165.703125c6.621094 4.847656 15.894532 3.414062 20.816407-3.121094l18.015625-24.007812c4.960937-6.621094 3.683594-16.113282-3.148438-21.121094zm0 0"/><path d="m256 400.3125c50.003906-42.308594 90-70.164062 90-103.945312 0-23.585938-16.128906-41.367188-37.5-41.367188-27.847656 0-37.675781 32.722656-38.070312 34.117188-1.859376 6.398437-7.75 10.851562-14.414063 10.851562-.03125 0-.058594 0-.074219 0-6.679687-.042969-12.539062-4.4375-14.371094-10.851562-.394531-1.394532-10.222656-34.117188-38.070312-34.117188-21.371094 0-37.5 17.78125-37.5 41.367188 0 35.285156 46.296875 66.964843 90 103.945312zm0 0"/><path d="m60 109.433594c19.070312-14.832032 39.757812-30.945313 59.589844-46.402344.140625-.109375.269531-.210938.410156-.320312v-17.710938c0-8.285156-6.714844-15-15-15h-30c-8.285156 0-15 6.714844-15 15zm0 0"/><path d="m497 482h-45v-221l-196-151.648438-196 151.664063v220.984375h-45c-8.289062 0-15 6.707031-15 15 0 8.289062 6.710938 15 15 15h482c8.292969 0 15-6.710938 15-15 0-8.292969-6.707031-15-15-15zm-231.242188-50.617188c-2.800781 2.414063-6.285156 3.617188-9.757812 3.617188s-6.957031-1.203125-9.757812-3.617188c-60.652344-51.976562-110.242188-83.992187-110.242188-135.015624 0-40.019532 29.648438-71.367188 67.5-71.367188 25.5625 0 42.203125 13.636719 52.5 27.464844 10.296875-13.828125 26.9375-27.464844 52.5-27.464844 37.851562 0 67.5 31.347656 67.5 71.367188 0 50.347656-46.347656 80.261718-110.242188 135.015624zm0 0"/></svg>