<svg height="512pt" viewBox="0 -31 512 512" width="512pt" xmlns="http://www.w3.org/2000/svg"><path d="m407 240c-57.890625 0-105 47.109375-105 105s47.109375 105 105 105 105-47.109375 105-105-47.109375-105-105-105zm42.421875 126.210938-21.210937 21.210937-21.210938-21.210937-21.210938 21.210937-21.210937-21.210937 21.210937-21.210938-21.210937-21.210938 21.210937-21.210937 21.210938 21.210937 21.210938-21.210937 21.210937 21.210937-21.210937 21.210938zm0 0"/><path d="m407 210c17.628906 0 34.375 3.621094 49.828125 9.792969 15.949219-26.023438 25.171875-52.953125 25.171875-82.667969 0-78.179688-54.8125-137.125-127.5-137.125-56.5 0-94.03125 38.539062-113.5 73.84375-19.46875-35.304688-56-73.84375-112.5-73.84375-72.6875 0-128.5 58.945312-128.5 137.125 0 101.140625 101.417969 166.738281 231.171875 279.214844l9.828125 8.507812 9.828125-8.507812c9.820313-8.507813 20.441406-16.699219 29.957031-24.753906-5.402344-14.582032-8.785156-30.148438-8.785156-46.585938 0-74.441406 60.558594-135 135-135zm0 0"/></svg>