<?xml version="1.0" encoding="utf-8"?>
<!-- Generator: Adobe Illustrator 16.0.0, SVG Export Plug-In . SVG Version: 6.00 Build 0)  -->
<!DOCTYPE svg PUBLIC "-//W3C//DTD SVG 1.1//EN" "http://www.w3.org/Graphics/SVG/1.1/DTD/svg11.dtd">
<svg version="1.1" id="Layer_1" xmlns="http://www.w3.org/2000/svg" xmlns:xlink="http://www.w3.org/1999/xlink" x="0px" y="0px"
	 width="300px" height="300px" viewBox="0 0 300 300" enable-background="new 0 0 300 300" xml:space="preserve">
<g>
	<path d="M279.546,39.957H20.454c-7.156,0-12.954,5.804-12.954,12.957v194.317c0,7.153,5.798,12.957,12.954,12.957
		c7.153,0,12.955-5.804,12.955-12.957V65.869h68.015v6.541c-6.349,1.469-11.433,4.976-13.888,9.654H52.841
		c-3.578,0-6.476,2.898-6.476,6.476v136.024c0,3.575,2.898,6.476,6.476,6.476h207.275c3.575,0,6.476-2.9,6.476-6.476V88.539
		c0-3.578-2.901-6.476-6.476-6.476h-34.697c-2.453-4.679-7.537-8.186-13.889-9.654v-6.541h68.016
		c7.156,0,12.954-5.802,12.954-12.955S286.702,39.957,279.546,39.957z M253.634,218.082H59.32V95.018h194.314V218.082z
		 M198.576,72.409c-6.349,1.472-11.433,4.976-13.879,9.654H128.26c-2.449-4.679-7.533-8.183-13.882-9.654v-6.541h84.198V72.409z"/>
	<path d="M86.729,179.977c-11.829,0-10.193-9.262-16.535-9.262c-2.848,0-4.917,1.992-4.917,4.843c0,5.56,6.63,12.973,21.452,12.973
		c14.104,0,21.094-6.915,21.094-16.18c0-5.984-2.709-12.326-13.4-14.751l-9.76-2.208c-3.708-0.854-7.984-1.995-7.984-5.554
		c0-3.569,2.993-6.064,8.408-6.064c10.904,0,9.905,7.626,15.32,7.626c2.854,0,5.347-1.704,5.347-4.626
		c0-6.843-10.762-11.977-19.881-11.977c-9.905,0-20.454,4.277-20.454,15.679c0,5.489,1.927,11.334,12.546,14.04l13.18,3.349
		c3.989,0.996,4.988,3.278,4.988,5.347C96.133,176.627,92.784,179.977,86.729,179.977z"/>
	<path d="M117.007,188.246c2.78,0,4.416-0.931,5.205-3.207l3.064-8.554h18.812l2.99,8.554c0.856,2.276,2.712,3.207,5.276,3.207
		c2.993,0,5.489-2.282,5.489-5.13c0-1.287-0.717-3.349-1.144-4.494l-14.111-39.265c-1.283-3.634-3.634-4.271-6.271-4.271h-2.78
		c-2.848,0-4.7,0.924-5.699,3.559l-15.106,39.976c-0.427,1.145-1.138,3.207-1.138,4.494
		C111.592,186.248,113.8,188.246,117.007,188.246z M134.751,147.769h0.146l6.624,20.596h-13.684L134.751,147.769z"/>
	<path d="M170.729,187.315H195.1c3.349,0,6.055-1.707,6.055-4.914c0-3.207-2.706-4.917-6.055-4.917h-19.525v-36.556
		c0-3.494-2.276-5.841-5.842-5.841s-5.845,2.347-5.845,5.841v39.549C163.888,185.679,166.6,187.315,170.729,187.315z"/>
	<path d="M214.545,187.315h28.005c3.42,0,5.913-0.993,5.913-4.7c0-3.708-2.493-4.704-5.913-4.704h-23.159V165.51h19.81
		c3.065,0,5.489-0.854,5.489-4.49c0-3.634-2.424-4.487-5.489-4.487h-19.81v-11.117h22.59c3.42,0,5.916-0.996,5.916-4.704
		c0-3.705-2.495-4.701-5.916-4.701h-27.437c-4.131,0-6.84,1.636-6.84,6.837v37.629C207.705,185.679,210.414,187.315,214.545,187.315
		z"/>
</g>
</svg>
