<svg height="496pt" viewBox="0 0 496 496" width="496pt" xmlns="http://www.w3.org/2000/svg" xmlns:xlink="http://www.w3.org/1999/xlink"><linearGradient id="a" gradientUnits="userSpaceOnUse" x1="248" x2="248" y1="496" y2="0"><stop offset="0" stop-color="#9f2fff"/><stop offset="1" stop-color="#0bb1d3"/></linearGradient><path d="m216 448h64v16h-64zm-.6875-109.375c-4.648438-4.648438-7.3125-11.082031-7.3125-17.65625 0-13.769531 11.199219-24.96875 24.96875-24.96875 5.414062 0 10.726562 1.808594 15.03125 5.03125 4.304688-3.222656 9.617188-5.03125 15.03125-5.03125 13.769531 0 24.96875 11.199219 24.96875 24.96875 0 6.574219-2.664062 13.007812-7.3125 17.65625l-32.6875 32.6875zm8.6875-17.65625c0 2.359375.953125 4.671875 2.625 6.34375l21.375 21.375 21.375-21.375c1.671875-1.671875 2.625-3.984375 2.625-6.34375 0-4.945312-4.023438-8.96875-8.96875-8.96875-2.359375 0-4.671875.953125-6.34375 2.625l-8.6875 8.6875-8.6875-8.6875c-1.671875-1.671875-3.984375-2.625-6.34375-2.625-4.945312 0-8.96875 4.023438-8.96875 8.96875zm24-64.96875c-16.097656 0-31.34375 5.238281-44.113281 15.167969l9.816406 12.640625c9.9375-7.730469 21.800781-11.808594 34.296875-11.808594 30.871094 0 56 25.128906 56 56 0 12.496094-4.078125 24.359375-11.808594 34.296875l12.640625 9.816406c9.929688-12.769531 15.167969-28.015625 15.167969-44.113281 0-39.703125-32.296875-72-72-72zm0 128c-30.871094 0-56-25.128906-56-56 0-12.496094 4.078125-24.359375 11.808594-34.296875l-12.640625-9.816406c-9.929688 12.769531-15.167969 28.015625-15.167969 44.113281 0 39.703125 32.296875 72 72 72 16.097656 0 31.34375-5.238281 44.113281-15.167969l-9.816406-12.640625c-9.9375 7.730469-21.800781 11.808594-34.296875 11.808594zm232 64h16v16h-144v8c0 13.230469-10.769531 24-24 24h-160c-13.230469 0-24-10.769531-24-24v-8h-144v-16h16v-72c0-13.230469 10.769531-24 24-24 6.167969 0 11.742188 2.40625 16 6.238281 2.3125-2.078125 5.007812-3.703125 8-4.765625v-137.488281c-.0625 0-.128906.015625-.183594.015625h-1.800781c-16.542969 0-30.015625-13.472656-30.015625-30.015625 0-8.648437 3.734375-16.878906 10.238281-22.578125l172.457031-150.894531c9.207032-8.0625 21.039063-12.511719 33.304688-12.511719s24.097656 4.449219 33.3125 12.519531l172.441406 150.871094c6.511719 5.714844 10.246094 13.945313 10.246094 22.59375 0 16.542969-13.472656 30.015625-30.015625 30.015625h-1.800781c-.0625 0-.128906-.015625-.183594-.015625v137.488281c2.992188 1.0625 5.6875 2.679688 8 4.765625 4.257812-3.839843 9.832031-6.238281 16-6.238281 13.230469 0 24 10.769531 24 24zm-32-72v72h16v-72c0-4.414062-3.585938-8-8-8s-8 3.585938-8 8zm-64 72h16v-72c0-4.414062-3.585938-8-8-8s-8 3.585938-8 8zm32 0h16v-72c0-4.414062-3.585938-8-8-8s-8 3.585938-8 8zm-352.183594-248c3.367188 0 6.609375-1.207031 9.152344-3.398438l175.03125-151.167968 175.03125 151.167968c2.542969 2.191407 5.792969 3.398438 9.152344 3.398438h1.800781c7.726563 0 14.015625-6.289062 14.015625-14.015625 0-4.039063-1.742188-7.878906-4.792969-10.542969l-172.429687-150.882812c-12.609375-11.046875-32.945313-11.039063-45.539063-.007813l-172.453125 150.898438c-3.042968 2.65625-4.785156 6.496093-4.785156 10.535156 0 7.726563 6.289062 14.015625 14.015625 14.015625zm16.183594 11.160156v142.3125c2.992188 1.0625 5.6875 2.679688 8 4.765625 4.257812-3.839843 9.832031-6.238281 16-6.238281s11.742188 2.40625 16 6.238281c4.257812-3.839843 9.832031-6.238281 16-6.238281 2.816406 0 5.488281.574219 8 1.472656v-153.472656c0-13.230469 10.769531-24 24-24h160c13.230469 0 24 10.769531 24 24v153.472656c2.511719-.898437 5.183594-1.472656 8-1.472656 6.167969 0 11.742188 2.40625 16 6.238281 4.257812-3.839843 9.832031-6.238281 16-6.238281s11.742188 2.40625 16 6.238281c2.3125-2.078125 5.007812-3.703125 8-4.765625v-142.3125c-1.183594-.761718-2.359375-1.535156-3.433594-2.464844l-164.566406-142.128906-164.574219 142.136719c-1.074219.929687-2.25 1.703125-3.425781 2.457031zm256 28.839844h-176v176h176zm0-40c0-4.414062-3.585938-8-8-8h-160c-4.414062 0-8 3.585938-8 8v24h176zm-240 248h16v-72c0-4.414062-3.585938-8-8-8s-8 3.585938-8 8zm-32-72v72h16v-72c0-4.414062-3.585938-8-8-8s-8 3.585938-8 8zm-32 72h16v-72c0-4.414062-3.585938-8-8-8s-8 3.585938-8 8zm112 0v-72c0-4.414062-3.585938-8-8-8s-8 3.585938-8 8v72zm192 24v-40h-176v40c0 4.414062 3.585938 8 8 8h160c4.414062 0 8-3.585938 8-8zm16-24h16v-72c0-4.414062-3.585938-8-8-8s-8 3.585938-8 8zm0 0" fill="url(#a)"/></svg>